<?xml version="1.0" encoding="utf-8"?>
<!-- Generator: Adobe Illustrator 16.2.1, SVG Export Plug-In . SVG Version: 6.00 Build 0)  -->
<!DOCTYPE svg PUBLIC "-//W3C//DTD SVG 1.1//EN" "http://www.w3.org/Graphics/SVG/1.1/DTD/svg11.dtd">
<svg version="1.1" xmlns="http://www.w3.org/2000/svg" xmlns:xlink="http://www.w3.org/1999/xlink" x="0px" y="0px" width="16px"
	 height="16px" viewBox="0 0 16 16" enable-background="new 0 0 16 16" xml:space="preserve">
<g id="Layer_2_1_">
	<rect x="2" y="2" fill="#F9F9F9" width="12" height="12"/>
</g>
<g id="Layer_1">
	<g id="Layer_2">
	</g>
	<g id="Layer_1_1_">
		<path d="M0,14c0,1.104,0.896,2,2,2h12c1.104,0,2-0.896,2-2V2c0-1.104-0.896-2-2-2H2C0.896,0,0,0.896,0,2V14z M4.5,7.5h5.793
			L8.146,5.354c-0.195-0.195-0.195-0.513,0-0.708s0.512-0.195,0.708,0l3,3c0.195,0.195,0.196,0.512,0.002,0.707c0,0,0,0-0.002,0.001
			l-3,3c-0.194,0.195-0.512,0.195-0.708,0c-0.196-0.194-0.195-0.512,0-0.707L10.293,8.5H4.5C4.224,8.5,4,8.276,4,8
			S4.224,7.5,4.5,7.5z"/>
	</g>
</g>
</svg>
