<?xml version="1.0" encoding="utf-8"?>
<!-- Generator: Adobe Illustrator 16.2.1, SVG Export Plug-In . SVG Version: 6.00 Build 0)  -->
<!DOCTYPE svg PUBLIC "-//W3C//DTD SVG 1.1//EN" "http://www.w3.org/Graphics/SVG/1.1/DTD/svg11.dtd">
<svg version="1.1" xmlns="http://www.w3.org/2000/svg" xmlns:xlink="http://www.w3.org/1999/xlink" x="0px" y="0px" width="16px"
	 height="16px" viewBox="0 0 16 16" enable-background="new 0 0 16 16" xml:space="preserve">
<g id="Layer_2">
	<rect x="2" y="2" fill="#F9F9F9" width="12" height="12"/>
</g>
<g id="Layer_1">
	<path d="M16,14c0,1.104-0.896,2-2,2H2c-1.104,0-2-0.896-2-2V2c0-1.104,0.896-2,2-2h12c1.104,0,2,0.896,2,2V14z M11.5,7.5H5.707
		l2.147-2.146c0.195-0.195,0.195-0.513,0-0.708s-0.513-0.195-0.708,0l-3,3C3.951,7.841,3.95,8.158,4.145,8.353c0,0,0,0,0.001,0.001
		l3,3c0.195,0.195,0.513,0.195,0.708,0s0.195-0.512,0-0.707L5.707,8.5H11.5C11.776,8.5,12,8.276,12,8S11.776,7.5,11.5,7.5z"/>
</g>
</svg>
